<svg width="417" height="139" viewBox="0 0 417 139" fill="none" xmlns="http://www.w3.org/2000/svg">
<path d="M0.43 43V42.35L1.795 41.83C2.705 41.4833 3.26833 41.0717 3.485 40.595C3.745 40.075 3.875 39.3817 3.875 38.515V4.585C3.875 3.71833 3.745 3.025 3.485 2.505C3.225 1.985 2.66167 1.57333 1.795 1.27L0.43 0.749998V0.0999983H17.005V0.749998L15.835 1.27C15.0117 1.57333 14.4483 2.00666 14.145 2.57C13.8417 3.09 13.69 3.78333 13.69 4.65V41.7H23.7C25.3033 41.7 26.4733 41.31 27.21 40.53C27.99 39.75 28.7267 38.6233 29.42 37.15L31.955 31.69H32.605L32.02 43H0.43ZM51.7175 10.76C54.5342 10.76 56.9392 11.345 58.9325 12.515C60.9259 13.6417 62.4425 15.2017 63.4825 17.195C64.5659 19.145 65.1075 21.3767 65.1075 23.89C65.1075 24.3667 65.0859 24.865 65.0425 25.385C64.9992 25.8617 64.9125 26.295 64.7825 26.685H45.4125C45.4559 31.365 46.2792 34.745 47.8825 36.825C49.5292 38.8617 51.9559 39.88 55.1625 39.88C57.3292 39.88 59.0842 39.5333 60.4275 38.84C61.7709 38.1467 63.0275 37.1283 64.1975 35.785L64.8475 36.37C63.5042 38.7533 61.7059 40.6167 59.4525 41.96C57.2425 43.3033 54.5775 43.975 51.4575 43.975C48.3809 43.975 45.6509 43.325 43.2675 42.025C40.8842 40.6817 39.0209 38.775 37.6775 36.305C36.3342 33.835 35.6625 30.8883 35.6625 27.465C35.6625 23.9117 36.4425 20.9 38.0025 18.43C39.5625 15.9167 41.5559 14.01 43.9825 12.71C46.4525 11.41 49.0309 10.76 51.7175 10.76ZM51.5225 12.06C50.2659 12.06 49.1825 12.45 48.2725 13.23C47.4059 13.9667 46.7125 15.31 46.1925 17.26C45.7159 19.1667 45.4559 21.875 45.4125 25.385H56.5275C56.9609 20.6617 56.7875 17.26 56.0075 15.18C55.2275 13.1 53.7325 12.06 51.5225 12.06ZM80.6969 43.975C77.9235 43.975 75.7569 43.2817 74.1969 41.895C72.6802 40.5083 71.9219 38.2983 71.9219 35.265V13.035H67.4369V12.385L68.9969 12.125C70.3402 11.8217 71.4885 11.3883 72.4419 10.825C73.4385 10.2617 74.4135 9.50333 75.3669 8.55L80.6969 2.635H81.3469L81.1519 11.735H88.4319V13.035H81.0869V36.435C81.0869 37.9517 81.4119 39.1 82.0619 39.88C82.7552 40.66 83.6219 41.05 84.6619 41.05C85.5719 41.05 86.3735 40.8333 87.0669 40.4C87.7602 39.9233 88.4535 39.295 89.1469 38.515L89.7969 39.165C88.9302 40.6383 87.7385 41.8083 86.2219 42.675C84.7052 43.5417 82.8635 43.975 80.6969 43.975ZM113.827 43V42.35L115.777 41.83C117.293 41.3967 118.052 40.3133 118.052 38.58V26.23L107.327 4.39C106.937 3.52333 106.568 2.87333 106.222 2.44C105.918 2.00667 105.442 1.63833 104.792 1.335L103.622 0.749998V0.0999983H121.042V0.749998L119.872 1.205C118.918 1.595 118.398 2.13667 118.312 2.83C118.225 3.48 118.398 4.30333 118.832 5.3L126.502 22.33L135.082 4.65C135.428 3.95667 135.558 3.24167 135.472 2.505C135.428 1.76833 134.973 1.29166 134.107 1.075L133.197 0.749998V0.0999983H140.997V0.749998L139.762 1.205C138.938 1.50833 138.332 1.94166 137.942 2.505C137.552 3.025 137.162 3.69667 136.772 4.52L127.867 23.24V38.58C127.867 39.4467 128.018 40.1617 128.322 40.725C128.668 41.245 129.253 41.6133 130.077 41.83L132.092 42.35V43H113.827ZM152.775 43.975C149.482 43.975 146.622 43.3033 144.195 41.96C141.769 40.5733 139.884 38.6233 138.54 36.11C137.24 33.5967 136.59 30.65 136.59 27.27C136.59 23.89 137.284 20.965 138.67 18.495C140.1 16.025 142.029 14.1183 144.455 12.775C146.925 11.4317 149.699 10.76 152.775 10.76C155.852 10.76 158.604 11.4317 161.03 12.775C163.457 14.075 165.364 15.96 166.75 18.43C168.18 20.9 168.895 23.8467 168.895 27.27C168.895 30.6933 168.224 33.6617 166.88 36.175C165.58 38.645 163.717 40.5733 161.29 41.96C158.907 43.3033 156.069 43.975 152.775 43.975ZM152.775 42.675C154.292 42.675 155.505 42.2417 156.415 41.375C157.325 40.5083 157.975 38.97 158.365 36.76C158.799 34.55 159.015 31.43 159.015 27.4C159.015 23.3267 158.799 20.185 158.365 17.975C157.975 15.765 157.325 14.2267 156.415 13.36C155.505 12.4933 154.292 12.06 152.775 12.06C151.259 12.06 150.024 12.4933 149.07 13.36C148.16 14.2267 147.489 15.765 147.055 17.975C146.665 20.185 146.47 23.3267 146.47 27.4C146.47 31.43 146.665 34.55 147.055 36.76C147.489 38.97 148.16 40.5083 149.07 41.375C150.024 42.2417 151.259 42.675 152.775 42.675ZM183.261 43.975C181.571 43.975 180.011 43.65 178.581 43C177.195 42.35 176.09 41.31 175.266 39.88C174.486 38.4067 174.118 36.4783 174.161 34.095L174.356 17.39C174.356 16.3933 174.183 15.6783 173.836 15.245C173.49 14.8117 172.948 14.5083 172.211 14.335L171.431 14.075V13.425L183.066 11.15L183.716 11.8L183.391 21.03V36.695C183.391 38.0817 183.781 39.1 184.561 39.75C185.385 40.4 186.403 40.725 187.616 40.725C188.83 40.725 189.913 40.5517 190.866 40.205C191.82 39.8583 192.773 39.3383 193.726 38.645L193.986 17.455C193.986 16.4583 193.835 15.765 193.531 15.375C193.228 14.9417 192.665 14.6383 191.841 14.465L191.191 14.27V13.62L202.566 11.15L203.216 11.8L203.021 21.03V38.645C203.021 39.5983 203.151 40.335 203.411 40.855C203.671 41.375 204.235 41.8083 205.101 42.155L205.751 42.35V43L194.376 43.65L193.791 39.815C192.361 40.985 190.801 41.9817 189.111 42.805C187.465 43.585 185.515 43.975 183.261 43.975ZM208.376 43V42.35L209.351 42.09C210.218 41.83 210.803 41.44 211.106 40.92C211.453 40.4 211.626 39.7283 211.626 38.905V18.56C211.626 17.6067 211.453 16.9133 211.106 16.48C210.803 16.0033 210.218 15.6783 209.351 15.505L208.376 15.245V14.595L219.556 10.825L220.206 11.475L220.791 17.065V17.585C221.398 16.3717 222.178 15.2667 223.131 14.27C224.128 13.23 225.211 12.385 226.381 11.735C227.595 11.085 228.786 10.76 229.956 10.76C231.603 10.76 232.86 11.215 233.726 12.125C234.593 13.035 235.026 14.1833 235.026 15.57C235.026 17.0433 234.593 18.1917 233.726 19.015C232.903 19.795 231.906 20.185 230.736 20.185C228.916 20.185 227.313 19.275 225.926 17.455L225.796 17.325C225.363 16.7183 224.865 16.3933 224.301 16.35C223.738 16.2633 223.218 16.5233 222.741 17.13C222.308 17.52 221.94 17.9967 221.636 18.56C221.376 19.08 221.116 19.6867 220.856 20.38V38.515C220.856 40.2483 221.615 41.3317 223.131 41.765L225.211 42.35V43H208.376ZM251.353 43V42.35L252.653 41.83C253.52 41.5267 254.083 41.115 254.343 40.595C254.646 40.075 254.798 39.4033 254.798 38.58V4.585C254.798 3.71833 254.646 3.025 254.343 2.505C254.083 1.985 253.52 1.57333 252.653 1.27L251.353 0.749998V0.0999983H267.863V0.749998L266.758 1.205C265.935 1.50833 265.371 1.92 265.068 2.44C264.765 2.91666 264.613 3.58833 264.613 4.455V20.25H280.148V4.455C280.148 3.58833 279.996 2.91666 279.693 2.44C279.433 1.92 278.87 1.50833 278.003 1.205L276.833 0.749998V0.0999983H293.408V0.749998L292.108 1.27C291.285 1.57333 290.721 1.985 290.418 2.505C290.115 3.025 289.963 3.71833 289.963 4.585V38.58C289.963 39.4033 290.115 40.075 290.418 40.595C290.721 41.115 291.285 41.5267 292.108 41.83L293.408 42.35V43H276.833V42.35L278.003 41.96C278.87 41.6133 279.433 41.2017 279.693 40.725C279.996 40.205 280.148 39.5117 280.148 38.645V21.55H264.613V38.645C264.613 40.2483 265.328 41.3533 266.758 41.96L267.863 42.35V43H251.353ZM310.895 43.975C307.602 43.975 304.742 43.3033 302.315 41.96C299.889 40.5733 298.004 38.6233 296.66 36.11C295.36 33.5967 294.71 30.65 294.71 27.27C294.71 23.89 295.404 20.965 296.79 18.495C298.22 16.025 300.149 14.1183 302.575 12.775C305.045 11.4317 307.819 10.76 310.895 10.76C313.972 10.76 316.724 11.4317 319.15 12.775C321.577 14.075 323.484 15.96 324.87 18.43C326.3 20.9 327.015 23.8467 327.015 27.27C327.015 30.6933 326.344 33.6617 325 36.175C323.7 38.645 321.837 40.5733 319.41 41.96C317.027 43.3033 314.189 43.975 310.895 43.975ZM310.895 42.675C312.412 42.675 313.625 42.2417 314.535 41.375C315.445 40.5083 316.095 38.97 316.485 36.76C316.919 34.55 317.135 31.43 317.135 27.4C317.135 23.3267 316.919 20.185 316.485 17.975C316.095 15.765 315.445 14.2267 314.535 13.36C313.625 12.4933 312.412 12.06 310.895 12.06C309.379 12.06 308.144 12.4933 307.19 13.36C306.28 14.2267 305.609 15.765 305.175 17.975C304.785 20.185 304.59 23.3267 304.59 27.4C304.59 31.43 304.785 34.55 305.175 36.76C305.609 38.97 306.28 40.5083 307.19 41.375C308.144 42.2417 309.379 42.675 310.895 42.675ZM329.87 43V42.35L330.78 42.09C331.604 41.8733 332.167 41.505 332.47 40.985C332.817 40.465 333.012 39.7717 333.055 38.905V18.56C333.055 17.6067 332.904 16.9133 332.6 16.48C332.297 16.0033 331.712 15.6783 330.845 15.505L329.87 15.245V14.595L340.985 10.825L341.635 11.475L342.155 15.895C343.585 14.465 345.21 13.2517 347.03 12.255C348.894 11.2583 350.822 10.76 352.815 10.76C354.895 10.76 356.564 11.1933 357.82 12.06C359.077 12.8833 360.03 14.1833 360.68 15.96C362.37 14.3567 364.19 13.1 366.14 12.19C368.134 11.2367 370.062 10.76 371.925 10.76C375.002 10.76 377.255 11.4967 378.685 12.97C380.159 14.4433 380.895 16.7617 380.895 19.925V38.97C380.895 40.66 381.675 41.7217 383.235 42.155L383.95 42.35V43H368.935V42.35L369.585 42.155C370.409 41.895 370.972 41.505 371.275 40.985C371.622 40.465 371.795 39.7717 371.795 38.905V19.015C371.795 17.195 371.47 15.96 370.82 15.31C370.17 14.6167 369.13 14.27 367.7 14.27C366.574 14.27 365.469 14.53 364.385 15.05C363.345 15.5267 362.24 16.2633 361.07 17.26C361.287 17.9533 361.417 18.7117 361.46 19.535C361.547 20.3583 361.59 21.225 361.59 22.135V38.97C361.634 40.66 362.414 41.7217 363.93 42.155L364.515 42.35V43H349.435V42.35L350.345 42.09C351.169 41.83 351.732 41.4617 352.035 40.985C352.382 40.465 352.555 39.7717 352.555 38.905V19.08C352.555 17.3467 352.23 16.1117 351.58 15.375C350.974 14.6383 349.912 14.27 348.395 14.27C347.399 14.27 346.402 14.53 345.405 15.05C344.409 15.5267 343.369 16.2417 342.285 17.195V38.97C342.285 40.66 343.044 41.7217 344.56 42.155L345.145 42.35V43H329.87ZM402.806 10.76C405.623 10.76 408.028 11.345 410.021 12.515C412.015 13.6417 413.531 15.2017 414.571 17.195C415.655 19.145 416.196 21.3767 416.196 23.89C416.196 24.3667 416.175 24.865 416.131 25.385C416.088 25.8617 416.001 26.295 415.871 26.685H396.501C396.545 31.365 397.368 34.745 398.971 36.825C400.618 38.8617 403.045 39.88 406.251 39.88C408.418 39.88 410.173 39.5333 411.516 38.84C412.86 38.1467 414.116 37.1283 415.286 35.785L415.936 36.37C414.593 38.7533 412.795 40.6167 410.541 41.96C408.331 43.3033 405.666 43.975 402.546 43.975C399.47 43.975 396.74 43.325 394.356 42.025C391.973 40.6817 390.11 38.775 388.766 36.305C387.423 33.835 386.751 30.8883 386.751 27.465C386.751 23.9117 387.531 20.9 389.091 18.43C390.651 15.9167 392.645 14.01 395.071 12.71C397.541 11.41 400.12 10.76 402.806 10.76ZM402.611 12.06C401.355 12.06 400.271 12.45 399.361 13.23C398.495 13.9667 397.801 15.31 397.281 17.26C396.805 19.1667 396.545 21.875 396.501 25.385H407.616C408.05 20.6617 407.876 17.26 407.096 15.18C406.316 13.1 404.821 12.06 402.611 12.06ZM0.43 124V123.35L1.6 122.895C2.46667 122.548 3.05167 122.115 3.355 121.595C3.70167 121.075 3.875 120.382 3.875 119.515V85.585C3.875 84.675 3.70167 83.96 3.355 83.44C3.05167 82.92 2.46667 82.5083 1.6 82.205L0.43 81.75V81.1H19.085C24.3717 81.1 28.185 82.075 30.525 84.025C32.865 85.9317 34.035 88.3583 34.035 91.305C34.035 93.515 33.1683 95.53 31.435 97.35C29.745 99.1267 26.82 100.383 22.66 101.12C27.4267 101.64 30.915 102.897 33.125 104.89C35.335 106.84 36.44 109.223 36.44 112.04C36.44 113.427 36.1367 114.835 35.53 116.265C34.9233 117.652 33.8833 118.93 32.41 120.1C30.98 121.27 29.0083 122.223 26.495 122.96C23.9817 123.653 20.7967 124 16.94 124H0.43ZM13.495 101.055H16.29C19.1933 101.055 21.2733 100.383 22.53 99.04C23.83 97.6967 24.48 95.3567 24.48 92.02C24.48 88.5533 23.895 86.0833 22.725 84.61C21.555 83.1367 19.6483 82.4 17.005 82.4H13.495V101.055ZM13.495 122.7H16.745C19.995 122.7 22.4 121.833 23.96 120.1C25.5633 118.367 26.365 115.658 26.365 111.975C26.365 108.508 25.6067 106.038 24.09 104.565C22.5733 103.092 20.0817 102.355 16.615 102.355H13.495V122.7ZM55.8435 91.76C58.6602 91.76 61.0652 92.345 63.0585 93.515C65.0519 94.6417 66.5685 96.2017 67.6085 98.195C68.6919 100.145 69.2335 102.377 69.2335 104.89C69.2335 105.367 69.2119 105.865 69.1685 106.385C69.1252 106.862 69.0385 107.295 68.9085 107.685H49.5385C49.5818 112.365 50.4052 115.745 52.0085 117.825C53.6552 119.862 56.0818 120.88 59.2885 120.88C61.4552 120.88 63.2102 120.533 64.5535 119.84C65.8969 119.147 67.1535 118.128 68.3235 116.785L68.9735 117.37C67.6302 119.753 65.8319 121.617 63.5785 122.96C61.3685 124.303 58.7035 124.975 55.5835 124.975C52.5068 124.975 49.7768 124.325 47.3935 123.025C45.0102 121.682 43.1468 119.775 41.8035 117.305C40.4602 114.835 39.7885 111.888 39.7885 108.465C39.7885 104.912 40.5685 101.9 42.1285 99.43C43.6885 96.9167 45.6818 95.01 48.1085 93.71C50.5785 92.41 53.1568 91.76 55.8435 91.76ZM55.6485 93.06C54.3918 93.06 53.3085 93.45 52.3985 94.23C51.5318 94.9667 50.8385 96.31 50.3185 98.26C49.8418 100.167 49.5818 102.875 49.5385 106.385H60.6535C61.0869 101.662 60.9135 98.26 60.1335 96.18C59.3535 94.1 57.8585 93.06 55.6485 93.06ZM107.363 125.17C104.07 125.17 101.145 124.585 98.5881 123.415C96.0748 122.245 94.1031 120.403 92.6731 117.89C91.2865 115.333 90.5931 111.975 90.5931 107.815V85.39C90.5931 83.7433 89.7481 82.66 88.0581 82.14L86.6281 81.75V81.1H104.633V81.75L102.748 82.27C101.145 82.66 100.343 83.7433 100.343 85.52V109.505C100.343 113.535 101.188 116.525 102.878 118.475C104.568 120.382 106.995 121.335 110.158 121.335C113.451 121.335 116.051 120.317 117.958 118.28C119.908 116.243 120.883 113.362 120.883 109.635V85.78C120.883 84.9133 120.731 84.155 120.428 83.505C120.168 82.8117 119.605 82.3567 118.738 82.14L117.113 81.75V81.1H126.213V81.75L124.458 82.205C123.635 82.3783 123.093 82.79 122.833 83.44C122.573 84.09 122.443 84.8483 122.443 85.715V109.505C122.443 112.668 121.815 115.442 120.558 117.825C119.301 120.165 117.546 121.985 115.293 123.285C113.04 124.542 110.396 125.17 107.363 125.17ZM126.872 124V123.35L127.782 123.09C129.299 122.657 130.057 121.595 130.057 119.905V99.56C130.057 98.6067 129.906 97.9133 129.602 97.48C129.299 97.0033 128.714 96.6783 127.847 96.505L126.872 96.245V95.595L137.987 91.825L138.637 92.475L139.157 96.375C140.674 95.0317 142.386 93.9267 144.292 93.06C146.199 92.1933 148.084 91.76 149.947 91.76C152.807 91.76 154.996 92.54 156.512 94.1C158.072 95.66 158.852 98.0433 158.852 101.25V119.97C158.852 121.66 159.676 122.722 161.322 123.155L161.907 123.35V124H146.567V123.35L147.412 123.09C148.929 122.613 149.687 121.552 149.687 119.905V99.17C149.687 96.3967 148.301 95.01 145.527 95.01C143.621 95.01 141.541 95.9633 139.287 97.87V119.97C139.287 121.66 140.046 122.722 141.562 123.155L142.147 123.35V124H126.872ZM172.25 88.38C170.777 88.38 169.52 87.925 168.48 87.015C167.484 86.0617 166.985 84.87 166.985 83.44C166.985 81.9667 167.484 80.775 168.48 79.865C169.52 78.955 170.777 78.5 172.25 78.5C173.724 78.5 174.959 78.955 175.955 79.865C176.952 80.775 177.45 81.9667 177.45 83.44C177.45 84.87 176.952 86.0617 175.955 87.015C174.959 87.925 173.724 88.38 172.25 88.38ZM164.58 124V123.35L165.49 123.09C166.357 122.83 166.942 122.44 167.245 121.92C167.592 121.4 167.765 120.707 167.765 119.84V99.495C167.765 98.585 167.592 97.9133 167.245 97.48C166.942 97.0033 166.357 96.6783 165.49 96.505L164.58 96.31V95.66L176.475 91.825L177.125 92.475L176.93 101.705V119.905C176.93 120.772 177.082 121.465 177.385 121.985C177.732 122.505 178.317 122.895 179.14 123.155L179.79 123.35V124H164.58ZM201.648 138.95V138.3L203.013 137.975C204.66 137.498 205.483 136.415 205.483 134.725V121.79C204.226 122.743 202.775 123.502 201.128 124.065C199.525 124.672 197.726 124.975 195.733 124.975C192.05 124.975 188.995 123.588 186.568 120.815C184.141 118.042 182.928 114.012 182.928 108.725C182.928 105.085 183.535 102.008 184.748 99.495C185.961 96.9817 187.63 95.075 189.753 93.775C191.92 92.4317 194.411 91.76 197.228 91.76C199.135 91.76 200.868 92.0417 202.428 92.605C204.031 93.1683 205.44 93.8833 206.653 94.75L214.063 91.76L214.713 92.41L214.518 101.185V134.92C214.518 136.697 215.298 137.758 216.858 138.105L217.443 138.3V138.95H201.648ZM200.023 122.375C201.843 122.375 203.598 121.682 205.288 120.295V95.595C204.551 95.1183 203.793 94.7717 203.013 94.555C202.233 94.3383 201.301 94.23 200.218 94.23C197.921 94.23 196.101 95.3567 194.758 97.61C193.415 99.82 192.743 103.482 192.743 108.595C192.743 113.578 193.393 117.132 194.693 119.255C195.993 121.335 197.77 122.375 200.023 122.375ZM230.996 124.975C229.306 124.975 227.746 124.65 226.316 124C224.929 123.35 223.824 122.31 223.001 120.88C222.221 119.407 221.852 117.478 221.896 115.095L222.091 98.39C222.091 97.3933 221.917 96.6783 221.571 96.245C221.224 95.8117 220.682 95.5083 219.946 95.335L219.166 95.075V94.425L230.801 92.15L231.451 92.8L231.126 102.03V117.695C231.126 119.082 231.516 120.1 232.296 120.75C233.119 121.4 234.137 121.725 235.351 121.725C236.564 121.725 237.647 121.552 238.601 121.205C239.554 120.858 240.507 120.338 241.461 119.645L241.721 98.455C241.721 97.4583 241.569 96.765 241.266 96.375C240.962 95.9417 240.399 95.6383 239.576 95.465L238.926 95.27V94.62L250.301 92.15L250.951 92.8L250.756 102.03V119.645C250.756 120.598 250.886 121.335 251.146 121.855C251.406 122.375 251.969 122.808 252.836 123.155L253.486 123.35V124L242.111 124.65L241.526 120.815C240.096 121.985 238.536 122.982 236.846 123.805C235.199 124.585 233.249 124.975 230.996 124.975ZM272.172 91.76C274.988 91.76 277.393 92.345 279.387 93.515C281.38 94.6417 282.897 96.2017 283.937 98.195C285.02 100.145 285.562 102.377 285.562 104.89C285.562 105.367 285.54 105.865 285.497 106.385C285.453 106.862 285.367 107.295 285.237 107.685H265.867C265.91 112.365 266.733 115.745 268.337 117.825C269.983 119.862 272.41 120.88 275.617 120.88C277.783 120.88 279.538 120.533 280.882 119.84C282.225 119.147 283.482 118.128 284.652 116.785L285.302 117.37C283.958 119.753 282.16 121.617 279.907 122.96C277.697 124.303 275.032 124.975 271.912 124.975C268.835 124.975 266.105 124.325 263.722 123.025C261.338 121.682 259.475 119.775 258.132 117.305C256.788 114.835 256.117 111.888 256.117 108.465C256.117 104.912 256.897 101.9 258.457 99.43C260.017 96.9167 262.01 95.01 264.437 93.71C266.907 92.41 269.485 91.76 272.172 91.76ZM271.977 93.06C270.72 93.06 269.637 93.45 268.727 94.23C267.86 94.9667 267.167 96.31 266.647 98.26C266.17 100.167 265.91 102.875 265.867 106.385H276.982C277.415 101.662 277.242 98.26 276.462 96.18C275.682 94.1 274.187 93.06 271.977 93.06Z" fill="#292F36"/>
</svg>
